<mxfile host="Electron" agent="Mozilla/5.0 (X11; Linux x86_64) AppleWebKit/537.36 (KHTML, like Gecko) draw.io/28.1.2 Chrome/138.0.7204.251 Electron/37.5.1 Safari/537.36" version="28.1.2">
  <diagram name="Page-1" id="X79K7lofzxEv4FQFJ-r2">
    <mxGraphModel dx="690" dy="551" grid="1" gridSize="10" guides="1" tooltips="1" connect="1" arrows="1" fold="1" page="1" pageScale="1" pageWidth="827" pageHeight="1169" math="0" shadow="0">
      <root>
        <mxCell id="0" />
        <mxCell id="1" parent="0" />
        <mxCell id="tUCCnLt23AtMKclwk9Z5-1" value="" style="shape=flexArrow;endArrow=classic;html=1;rounded=0;endWidth=143;endSize=80.66;width=280;" edge="1" parent="1">
          <mxGeometry width="50" height="50" relative="1" as="geometry">
            <mxPoint x="40" y="260" as="sourcePoint" />
            <mxPoint x="780" y="260" as="targetPoint" />
            <Array as="points">
              <mxPoint x="350" y="260" />
            </Array>
          </mxGeometry>
        </mxCell>
        <mxCell id="tUCCnLt23AtMKclwk9Z5-2" value="" style="endArrow=none;html=1;rounded=0;" edge="1" parent="1">
          <mxGeometry width="50" height="50" relative="1" as="geometry">
            <mxPoint x="239" y="400" as="sourcePoint" />
            <mxPoint x="239" y="123" as="targetPoint" />
          </mxGeometry>
        </mxCell>
        <mxCell id="tUCCnLt23AtMKclwk9Z5-3" value="" style="endArrow=none;html=1;rounded=0;" edge="1" parent="1">
          <mxGeometry width="50" height="50" relative="1" as="geometry">
            <mxPoint x="479" y="399" as="sourcePoint" />
            <mxPoint x="479" y="122" as="targetPoint" />
          </mxGeometry>
        </mxCell>
        <mxCell id="tUCCnLt23AtMKclwk9Z5-7" value="&lt;font style=&quot;font-size: 18px;&quot;&gt;Grêce archaïque&lt;/font&gt;" style="text;html=1;align=center;verticalAlign=middle;whiteSpace=wrap;rounded=0;" vertex="1" parent="1">
          <mxGeometry x="50" y="130" width="180" height="30" as="geometry" />
        </mxCell>
        <mxCell id="tUCCnLt23AtMKclwk9Z5-8" value="&lt;font style=&quot;font-size: 18px;&quot;&gt;Grêce antique &amp;amp; Moyen-Âge&lt;/font&gt;" style="text;html=1;align=center;verticalAlign=middle;whiteSpace=wrap;rounded=0;" vertex="1" parent="1">
          <mxGeometry x="271" y="127" width="180" height="43" as="geometry" />
        </mxCell>
        <mxCell id="tUCCnLt23AtMKclwk9Z5-9" value="&lt;font style=&quot;font-size: 18px;&quot;&gt;Moderne &amp;amp; contemporaine&lt;/font&gt;" style="text;html=1;align=center;verticalAlign=middle;whiteSpace=wrap;rounded=0;" vertex="1" parent="1">
          <mxGeometry x="475" y="128" width="180" height="43" as="geometry" />
        </mxCell>
        <mxCell id="tUCCnLt23AtMKclwk9Z5-10" value="&lt;font style=&quot;font-size: 16px;&quot;&gt;Épreuve&lt;/font&gt;" style="text;html=1;align=center;verticalAlign=middle;whiteSpace=wrap;rounded=0;" vertex="1" parent="1">
          <mxGeometry x="50" y="152" width="180" height="30" as="geometry" />
        </mxCell>
        <mxCell id="tUCCnLt23AtMKclwk9Z5-11" value="&lt;font style=&quot;font-size: 16px;&quot;&gt;Enquête&lt;/font&gt;" style="text;html=1;align=center;verticalAlign=middle;whiteSpace=wrap;rounded=0;" vertex="1" parent="1">
          <mxGeometry x="270" y="164" width="180" height="30" as="geometry" />
        </mxCell>
        <mxCell id="tUCCnLt23AtMKclwk9Z5-12" value="&lt;font style=&quot;font-size: 16px;&quot;&gt;Examen&lt;/font&gt;" style="text;html=1;align=center;verticalAlign=middle;whiteSpace=wrap;rounded=0;" vertex="1" parent="1">
          <mxGeometry x="477" y="165" width="180" height="30" as="geometry" />
        </mxCell>
        <mxCell id="tUCCnLt23AtMKclwk9Z5-13" value="&lt;font style=&quot;font-size: 14px;&quot;&gt;La personne attaquant lance un défi à l&#39;accusé et si ce dernier le relève, alors l&#39;accusé a raison. Le juge s&#39;occupe de la régularité de la procédure.&lt;/font&gt;&lt;div&gt;&lt;font style=&quot;font-size: 14px;&quot;&gt;&lt;br&gt;&lt;/font&gt;&lt;/div&gt;&lt;div&gt;&lt;font style=&quot;font-size: 14px;&quot;&gt;Exemple : l&#39;accusation de Ménélas par Antiloque.&lt;/font&gt;&lt;/div&gt;" style="text;html=1;align=left;verticalAlign=middle;whiteSpace=wrap;rounded=0;" vertex="1" parent="1">
          <mxGeometry x="50" y="200" width="180" height="160" as="geometry" />
        </mxCell>
        <mxCell id="tUCCnLt23AtMKclwk9Z5-14" value="&lt;span style=&quot;font-size: 14px;&quot;&gt;Création de l&#39;infraction. Elle est forcément commise envers un représentant du pouvoir.&lt;/span&gt;&lt;div&gt;&lt;span style=&quot;font-size: 14px;&quot;&gt;Procureur représente le pouvoir.&lt;/span&gt;&lt;/div&gt;&lt;div&gt;&lt;span style=&quot;font-size: 14px;&quot;&gt;Création de l&#39;amende pour réparer le tort.&lt;/span&gt;&lt;/div&gt;&lt;div&gt;&lt;span style=&quot;font-size: 14px;&quot;&gt;Témoignage devient pertinent.&lt;/span&gt;&lt;/div&gt;&lt;div&gt;&lt;span style=&quot;font-size: 14px;&quot;&gt;&lt;br&gt;&lt;/span&gt;&lt;/div&gt;&lt;div&gt;&lt;span style=&quot;font-size: 14px;&quot;&gt;Exemple : Œdipe roi, berger qui rapporte ce qu&#39;il a vu&lt;/span&gt;&lt;/div&gt;" style="text;html=1;align=left;verticalAlign=middle;whiteSpace=wrap;rounded=0;" vertex="1" parent="1">
          <mxGeometry x="250" y="200" width="220" height="160" as="geometry" />
        </mxCell>
        <mxCell id="tUCCnLt23AtMKclwk9Z5-15" value="&lt;span style=&quot;font-size: 14px;&quot;&gt;Création de la notion de dangerosité. Un individu peut être dangereux sans n&#39;avoir rien commis.&lt;/span&gt;&lt;div&gt;&lt;span style=&quot;font-size: 14px;&quot;&gt;Laïcisation des termes et création de règles.&lt;/span&gt;&lt;/div&gt;&lt;div&gt;&lt;span style=&quot;font-size: 14px;&quot;&gt;Institutions doivent empêcher les individus dangereux&lt;/span&gt;&lt;/div&gt;&lt;div&gt;&lt;span style=&quot;font-size: 14px;&quot;&gt;Société panoptique, société où la règle est la norme&lt;/span&gt;&lt;/div&gt;&lt;div&gt;&lt;span style=&quot;font-size: 14px;&quot;&gt;&lt;br&gt;&lt;/span&gt;&lt;/div&gt;&lt;div&gt;&lt;span style=&quot;font-size: 14px;&quot;&gt;Exemple : Le panoptique&lt;/span&gt;&lt;/div&gt;&lt;div&gt;&lt;span style=&quot;font-size: 14px;&quot;&gt;de Bentham&lt;/span&gt;&lt;/div&gt;" style="text;html=1;align=left;verticalAlign=middle;whiteSpace=wrap;rounded=0;" vertex="1" parent="1">
          <mxGeometry x="487" y="204" width="220" height="179" as="geometry" />
        </mxCell>
      </root>
    </mxGraphModel>
  </diagram>
</mxfile>
